<svg id="contact" xmlns="http://www.w3.org/2000/svg" width="121.006" height="120.793" viewBox="0 0 121.006 120.793">
  <path id="Path_9" data-name="Path 9" d="M224.7,298.928a2.922,2.922,0,0,1-4.989-2.066,1.772,1.772,0,0,0-3.545,0,6.467,6.467,0,0,0,11.04,4.573,1.772,1.772,0,0,0-2.506-2.507Z" transform="translate(-165.084 -225.458)" fill="#c12a21"/>
  <path id="Path_10" data-name="Path 10" d="M83.132,87.333H78.357a6.315,6.315,0,0,0-6.05,4.533H64.888a14.625,14.625,0,0,1-8.956-3.1,15.345,15.345,0,0,0,12.2-7.1c2.137-3.4,2.3-7.081,2.48-10.951a1,1,0,0,1,.659-.9l5.578-2.039a4.752,4.752,0,0,0,2.265-7.065L71.246,49.206c-2.073-3.041-1.3-6.3-.854-9.663h1.972A18.236,18.236,0,0,0,90.65,21.736,18.2,18.2,0,0,0,72.607,3.454H36.9a3.6,3.6,0,0,0-3.545-3H24.8a3.6,3.6,0,0,0-3.588,3.4C13.781,4.786,8.455,7.527,4.966,12.2-.457,19.459-1.427,31.244,2,48.219c.266,1.348.509,3,.765,4.746,1.227,8.358,2.681,21.911,12.9,23.978-.2,7.8-2.274,15.011-4.366,22.435a10.144,10.144,0,0,0-8.762,10.035V119.47a1.772,1.772,0,0,0,1.772,1.772h5.741a1.772,1.772,0,1,0,0-3.545H6.082v-8.285a6.593,6.593,0,0,1,6.585-6.585h33.02a6.622,6.622,0,0,1,5.933,3.727L56.99,117.7H18.362a1.772,1.772,0,1,0,0,3.545H59.811a1.772,1.772,0,0,0,1.6-2.542l-6.594-13.685a10.194,10.194,0,0,0-6.957-5.493l1.33-5.813a6.288,6.288,0,0,1,2.628-3.9,18.21,18.21,0,0,0,13.073,5.6h7.419a6.315,6.315,0,0,0,6.05,4.533h4.776a6.305,6.305,0,0,0,0-12.611Zm-14.8-36.115,7.86,11.5a1.158,1.158,0,0,1-.556,1.734l-5.578,2.039A4.538,4.538,0,0,0,67.07,70.55c-.14,3.039-.116,6.029-1.666,8.765a11.777,11.777,0,0,1-10.176,5.92,9.7,9.7,0,0,0-2.369.3L37.592,65.717a6.153,6.153,0,0,0,4.623-5.952V40.927a6.132,6.132,0,0,0-.159-1.384h24.76c-.551,4.117-1.063,8.023,1.512,11.675ZM25.793,62.363V50.069a.421.421,0,0,1,.421-.421h5.729a.421.421,0,0,1,.421.421V62.363Zm6.15-16.26H26.214a3.97,3.97,0,0,0-3.966,3.966V62.363a2.64,2.64,0,0,1-2.761-2.6V40.928a2.6,2.6,0,0,1,2.6-2.6H36.072a2.6,2.6,0,0,1,2.6,2.6V59.765a2.64,2.64,0,0,1-2.761,2.6V50.069A3.97,3.97,0,0,0,31.943,46.1ZM27.219,25.519h3.72v9.266h-3.72ZM24.748,4.048h8.661V9.682a1.772,1.772,0,1,0,3.545,0V7H72.607a14.639,14.639,0,0,1,14.5,14.692A14.678,14.678,0,0,1,72.365,36H39.733c-1.574-1.172-3.384-1.213-5.25-1.213V25.519c1.156.138,2.471-.418,2.471-1.772V18.072a1.772,1.772,0,0,0-3.545,0v3.9H24.748ZM6.272,52.45c-.263-1.792-.512-3.484-.8-4.925C2.3,31.809,3.087,20.637,7.806,14.32c2.856-3.824,7.143-6.04,13.4-6.9V23.747a2,2,0,0,0,2.471,1.772v9.266c-3.836,0-7.732,1.634-7.732,6.143V59.765a6.15,6.15,0,0,0,6.143,6.143h.186v2.878A4.816,4.816,0,0,1,17.46,73.6C8.415,73.6,7.193,58.72,6.272,52.45ZM49.108,87.406a9.74,9.74,0,0,0-3.38,5.527l-1.453,6.35H15.009c2.081-7.385,4.013-14.572,4.2-22.328a8.369,8.369,0,0,0,6.6-8.17V65.908h7.449l16.3,21.154c-.154.111-.307.225-.454.345ZM83.132,96.4H78.357a2.761,2.761,0,0,1,0-5.521h4.776a2.761,2.761,0,0,1,0,5.521Z" transform="translate(0 -0.45)" fill="#c12a21"/>
  <path id="Path_11" data-name="Path 11" d="M366.831,204.088H345.612a6.347,6.347,0,0,0-6.34,6.34v5.892a1.772,1.772,0,1,0,3.545,0v-5.892a2.8,2.8,0,0,1,2.8-2.8h21.219a2.8,2.8,0,0,1,2.8,2.8V229.2a2.8,2.8,0,0,1-2.8,2.8H334.648l7.482-5.8a1.772,1.772,0,0,0-2.172-2.8l-8.61,6.674a3.081,3.081,0,0,0,1.872,5.472h33.61a6.347,6.347,0,0,0,6.34-6.34V210.428A6.347,6.347,0,0,0,366.831,204.088Z" transform="translate(-252.166 -155.963)" fill="#c12a21"/>
  <path id="Path_12" data-name="Path 12" d="M409.408,251.766H421.55a1.772,1.772,0,0,0,0-3.545H409.408a1.772,1.772,0,0,0,0,3.545Z" transform="translate(-311.301 -189.667)" fill="#c12a21"/>
  <path id="Path_13" data-name="Path 13" d="M409.408,285.541H421.55a1.772,1.772,0,0,0,0-3.545H409.408a1.772,1.772,0,0,0,0,3.545Z" transform="translate(-311.301 -215.46)" fill="#c12a21"/>
</svg>
