<svg id="door" xmlns="http://www.w3.org/2000/svg" width="74.702" height="116.421" viewBox="0 0 74.702 116.421">
  <path id="Path_2" data-name="Path 2" d="M164.729,0H93.444a1.709,1.709,0,0,0-1.709,1.709v65.82a1.709,1.709,0,1,0,3.418,0V3.417H163.02V113h-3.856V89.9a1.709,1.709,0,0,0-3.418,0V113h-53.32V10.691h53.32V83.069a1.709,1.709,0,0,0,3.418,0V8.982a1.709,1.709,0,0,0-1.709-1.709H100.717a1.709,1.709,0,0,0-1.709,1.709V113H95.153V74.364a1.709,1.709,0,1,0-3.418,0v40.349a1.709,1.709,0,0,0,1.709,1.709h71.285a1.709,1.709,0,0,0,1.709-1.709v-113A1.709,1.709,0,0,0,164.729,0Z" transform="translate(-91.735 0)" fill="#c12a21"/>
  <path id="Path_3" data-name="Path 3" d="M167.189,94.317a1.709,1.709,0,0,0-1.709,1.709v16.347a1.709,1.709,0,0,0,1.709,1.709h37.748a1.709,1.709,0,0,0,1.709-1.709V74.459a1.709,1.709,0,0,0-1.709-1.709H167.189a1.709,1.709,0,0,0-1.709,1.709V89.191a1.709,1.709,0,0,0,3.418,0V76.168h34.331v34.5H168.9V96.026A1.709,1.709,0,0,0,167.189,94.317Z" transform="translate(-148.711 -56.208)" fill="#c12a21"/>
  <path id="Path_4" data-name="Path 4" d="M165.48,329.088a1.709,1.709,0,0,0,1.709,1.709h37.748a1.709,1.709,0,0,0,1.709-1.709V291.174a1.709,1.709,0,0,0-1.709-1.709H167.189a1.709,1.709,0,0,0-1.709,1.709Zm3.417-36.206h34.331v34.5H168.9Z" transform="translate(-148.711 -223.645)" fill="#c12a21"/>
  <path id="Path_5" data-name="Path 5" d="M326.418,261.034a3.222,3.222,0,0,0-5.957-1.709h-4.077a1.709,1.709,0,0,0,0,3.418h4.077a3.222,3.222,0,0,0,5.957-1.709Z" transform="translate(-263.982 -199.186)" fill="#c12a21"/>
</svg>
