<svg id="fence" xmlns="http://www.w3.org/2000/svg" width="137.129" height="116.421" viewBox="0 0 137.129 116.421">
  <g id="Group_4" data-name="Group 4">
    <path id="Path_6" data-name="Path 6" d="M118.156,38.658,99.184,56.8V67.451H87.537V56.8L68.564,38.658,49.592,56.8V67.451H37.944V56.8L18.972,38.658,0,56.8v98.274H37.944v-15.7H49.592v15.7H87.537v-15.7H99.184v15.7h37.944V56.8ZM22.99,139.383H14.955v-8.035H22.99Zm0-63.9H14.955V67.451H22.99Zm26.6,55.863H37.944V75.486H49.592Zm22.99,8.035H64.547v-8.035h8.035Zm0-63.9H64.547V67.451h8.035Zm26.6,55.863H87.537V75.486H99.184Zm22.99,8.035h-8.035v-8.035h8.035Zm0-63.9h-8.035V67.451h8.035Z" transform="translate(0 -38.658)" fill="#c12a21"/>
  </g>
</svg>
