<svg id="garage" xmlns="http://www.w3.org/2000/svg" width="118" height="118" viewBox="0 0 118 118">
  <g id="Group_6" data-name="Group 6">
    <g id="Group_5" data-name="Group 5">
      <path id="Path_7" data-name="Path 7" d="M116.033,15.733A1.967,1.967,0,0,0,118,13.767V1.967A1.967,1.967,0,0,0,116.033,0H1.967A1.967,1.967,0,0,0,0,1.967v11.8a1.967,1.967,0,0,0,1.967,1.967H5.9v98.333H1.967a1.967,1.967,0,0,0,0,3.933H116.033a1.967,1.967,0,0,0,0-3.933H112.1V15.733ZM100.3,114.067H17.7v-11.8h82.6Zm0-15.733H17.7v-11.8h82.6Zm0-15.733H17.7V70.8h82.6Zm0-15.733H17.7v-11.8h82.6Zm0-15.733H17.7v-11.8h82.6Zm0-15.733H17.7V23.6h82.6Zm7.867,78.667h-3.933V21.633a1.967,1.967,0,0,0-1.967-1.967H15.733a1.967,1.967,0,0,0-1.967,1.967v92.433H9.833V15.733h98.333ZM3.933,11.8V3.933H114.067V11.8Z" fill="#c12a21"/>
      <path id="Path_8" data-name="Path 8" d="M209.967,443.933h11.8a1.967,1.967,0,0,0,0-3.933h-11.8a1.967,1.967,0,0,0,0,3.933Z" transform="translate(-156.867 -331.833)" fill="#c12a21"/>
    </g>
  </g>
</svg>
