<svg id="support" xmlns="http://www.w3.org/2000/svg" width="120.371" height="120.793" viewBox="0 0 120.371 120.793">
  <path id="Path_14" data-name="Path 14" d="M247.412,15.349a2.376,2.376,0,0,0,2.376-2.376V2.376a2.376,2.376,0,1,0-4.752,0v10.6A2.376,2.376,0,0,0,247.412,15.349Z" transform="translate(-187.437 0)" fill="#c12a21"/>
  <path id="Path_15" data-name="Path 15" d="M118.947,144.4l-4.2-4.186a7.957,7.957,0,0,0-9.415-1.343l-7.91-7.9.385-.385a8.246,8.246,0,0,0,0-11.644,8.156,8.156,0,0,0-4.136-2.237A8.3,8.3,0,0,0,94,114.392a8.228,8.228,0,0,0-6.545-8.059,8.3,8.3,0,0,0,.328-2.312,8.22,8.22,0,0,0-6.544-8.055,8.222,8.222,0,0,0-8.788-10.494L56.779,82.505c-2.39-.453-5.376-.753-7.26.965a4.29,4.29,0,0,0-.36.372,8.263,8.263,0,0,0-8.669,1.906,8.174,8.174,0,0,0-2.407,5.825,8.308,8.308,0,0,0,.327,2.312,8.229,8.229,0,0,0-6.543,8.05,8.284,8.284,0,0,0,.328,2.318,8.239,8.239,0,0,0-5.107,12.714,8.234,8.234,0,0,0-3.163,13.621l.384.382-7.911,7.9a7.944,7.944,0,0,0-8.988,1.557l-4.2,4.188a7.937,7.937,0,0,0,0,11.209l5.242,5.235a2.376,2.376,0,0,0,3.358-3.362l-5.242-5.235a3.186,3.186,0,0,1,0-4.483l4.2-4.188a3.181,3.181,0,0,1,3.875-.475,2.4,2.4,0,0,0,.3.366,2.365,2.365,0,0,0,.683.475L39.711,168.2a2.34,2.34,0,0,0,1.145,1.157,3.18,3.18,0,0,1-.132,4.338l-4.2,4.191a3.192,3.192,0,0,1-4.492,0l-5.242-5.242a2.376,2.376,0,0,0-3.36,3.36l5.245,5.246a7.955,7.955,0,0,0,11.2,0l4.2-4.194a7.944,7.944,0,0,0,1.112-9.812l8.9-8.892.029-.029c1.019-1.054,3.858-.857,6.6-.666a34.174,34.174,0,0,0,6.25.042l9.749,9.738a7.94,7.94,0,0,0,1.348,9.406l4.2,4.194a7.944,7.944,0,0,0,11.207,0l25.466-25.435a7.936,7.936,0,0,0,0-11.209ZM55.894,87.174,66.2,89.125l-6.169,6.167a14.978,14.978,0,0,1-3.7-2.687c-1.964-1.879-3.369-4.048-3.5-5.4a.007.007,0,0,1,0,0h0a2.075,2.075,0,0,1-.01-.234,8.051,8.051,0,0,1,3.067.207ZM43.848,89.111a3.5,3.5,0,0,1,4.434-.42c.771,3.232,3.528,6.161,4.768,7.347.919.88,3.868,3.516,6.845,4.241a3.487,3.487,0,0,1-5.33,4.454h0l-10.715-10.7a3.5,3.5,0,0,1,0-4.925ZM37.64,99.48a3.5,3.5,0,0,1,4.937,0l8.628,8.611a3.492,3.492,0,0,1-4.943,4.934h0l-6.546-6.544-.032-.03-2.048-2.047a3.487,3.487,0,0,1,0-4.927Zm-6.22,10.366a3.515,3.515,0,0,1,4.921-.017l6.566,6.563a3.487,3.487,0,0,1-4.941,4.922l-2.38-2.377,0,0-4.163-4.158a3.5,3.5,0,0,1,0-4.931ZM27.281,122.3a3.512,3.512,0,0,1,4.944,0l2.384,2.381a3.487,3.487,0,0,1-4.944,4.92l-.3-.3-.011-.012-.014-.012-2.059-2.051a3.489,3.489,0,0,1,0-4.928Zm48.42,27a2.376,2.376,0,0,0-3.36,0l-2.114,2.111c-2.009,2.009-5.648,1.756-9.168,1.512-3.822-.266-7.775-.54-10.332,2.086l-8.752,8.741L20.09,141.9l7.745-7.731a8.24,8.24,0,0,0,12.542-7.027c0-.021,0-.041,0-.061h.062a8.219,8.219,0,0,0,8.237-8.227c0-.021,0-.041,0-.061h.063a8.21,8.21,0,0,0,8.237-8.29h.064a8.242,8.242,0,0,0,7.033-12.527l6.788-6.785a3.486,3.486,0,0,1,1.783-.95c.071-.008.141-.019.21-.033a3.482,3.482,0,0,1,2.958,5.909L73.74,98.177l-.021.02-2.381,2.377a2.376,2.376,0,1,0,3.358,3.362l2.076-2.073h0l.314-.313a3.5,3.5,0,0,1,4.931.012,3.487,3.487,0,0,1-.005,4.925l-2.079,2.083h0l-2.381,2.371a2.376,2.376,0,0,0,3.353,3.367l2.392-2.382a3.487,3.487,0,0,1,4.935,4.928L84.086,121a2.376,2.376,0,1,0,3.361,3.359l2.032-2.032c.012-.011.024-.021.036-.032a3.487,3.487,0,0,1,4.936,4.927l-2.066,2.063,0,0,0,0L89.1,132.566a2.376,2.376,0,0,0,3.358,3.362l1.6-1.6L101.749,142,79.866,163.86l-7.841-7.831a9.344,9.344,0,0,0,1.561-1.256l2.113-2.11a2.375,2.375,0,0,0,0-3.36Zm39.89,2.942L90.125,177.68a3.193,3.193,0,0,1-4.491,0l-4.2-4.194a3.177,3.177,0,0,1,0-4.477L106.9,143.574a3.193,3.193,0,0,1,4.492,0l4.2,4.186a3.185,3.185,0,0,1,0,4.484Z" transform="translate(-0.894 -62.771)" fill="#c12a21"/>
  <path id="Path_16" data-name="Path 16" d="M91.079,15.444a2.376,2.376,0,0,0,3.357-3.364L85.778,3.439A2.376,2.376,0,1,0,82.421,6.8Z" transform="translate(-62.654 -2.097)" fill="#c12a21"/>
  <path id="Path_17" data-name="Path 17" d="M374.027,16.138a2.369,2.369,0,0,0,1.679-.695L384.358,6.8A2.376,2.376,0,1,0,381,3.44l-8.651,8.641a2.376,2.376,0,0,0,1.679,4.057Z" transform="translate(-284.181 -2.098)" fill="#c12a21"/>
  <path id="Path_18" data-name="Path 18" d="M60.611,430.9a2.376,2.376,0,0,0,.029,3.36l.007.007a2.376,2.376,0,1,0-.036-3.367Z" transform="translate(-46.002 -328.7)" fill="#c12a21"/>
  <path id="Path_19" data-name="Path 19" d="M334.891,336.871a2.376,2.376,0,1,0-1.068-4.5l-.013.007a2.375,2.375,0,0,0,1.081,4.492Z" transform="translate(-254.273 -253.763)" fill="#c12a21"/>
</svg>
