<svg id="windows" xmlns="http://www.w3.org/2000/svg" width="108.904" height="116.421" viewBox="0 0 108.904 116.421">
  <g id="Group_3" data-name="Group 3">
    <path id="Path_1" data-name="Path 1" d="M118.279,104.674H111.09V1.753A1.657,1.657,0,0,0,109.337,0H21.67a1.657,1.657,0,0,0-1.753,1.753V104.674H12.728a1.656,1.656,0,0,0-1.753,1.753v8.241a1.656,1.656,0,0,0,1.753,1.753H118.1a1.656,1.656,0,0,0,1.753-1.753v-8.241A1.612,1.612,0,0,0,118.279,104.674ZM23.424,3.507h84.16V104.674h-4.559V9.643a1.656,1.656,0,0,0-1.753-1.753H29.736a1.657,1.657,0,0,0-1.753,1.753v95.031H23.424ZM67.257,72.413V43.658H99.518V72.413Zm32.261,3.507v28.755H67.257V75.919ZM67.257,40.151V11.4H99.518V40.151ZM31.489,72.413V43.658H63.75V72.413ZM63.75,75.919v28.755H31.489V75.919ZM31.489,40.151V11.4H63.75V40.151ZM14.482,112.915v-4.734H116.526v4.734Z" transform="translate(-10.975)" fill="#c12a21"/>
  </g>
</svg>
